<?xml version="1.0" standalone="no"?>
<!DOCTYPE svg PUBLIC "-//W3C//DTD SVG 20010904//EN"
 "http://www.w3.org/TR/2001/REC-SVG-20010904/DTD/svg10.dtd">
<svg version="1.0" xmlns="http://www.w3.org/2000/svg"
 width="700.000000pt" height="700.000000pt" viewBox="0 0 700.000000 700.000000"
 preserveAspectRatio="xMidYMid meet">
<metadata>
Created by potrace 1.14, written by Peter Selinger 2001-2017
</metadata>
<g transform="translate(0.000000,700.000000) scale(0.100000,-0.100000)"
fill="#000000" stroke="none">
<path d="M3485 5248 c-3 -7 -6 -363 -8 -790 l-2 -778 -50 62 c-62 75 -201 193
-293 248 -345 204 -776 222 -1138 46 -273 -134 -485 -363 -595 -645 -63 -160
-83 -267 -82 -446 0 -176 20 -279 82 -436 132 -327 362 -552 703 -688 237 -94
554 -98 804 -10 182 64 335 161 472 300 171 173 298 431 331 673 7 52 11 478
11 1277 l0 1199 -115 0 c-83 0 -117 -3 -120 -12z m-783 -1352 c199 -39 371
-136 519 -294 83 -87 119 -140 169 -244 68 -142 83 -218 83 -408 0 -139 -3
-178 -21 -245 -90 -327 -359 -596 -688 -686 -367 -101 -779 41 -1009 347 -193
255 -248 543 -164 853 43 159 171 354 310 468 130 108 297 188 444 212 83 14
278 12 357 -3z"/>
<path d="M4107 4003 c15 -27 166 -286 335 -577 280 -483 305 -531 293 -550
-33 -53 -636 -1098 -642 -1111 -5 -14 12 -15 132 -13 l138 3 254 440 c140 242
257 446 261 452 5 8 107 -160 267 -438 143 -248 264 -453 270 -455 6 -3 68 -3
138 -2 l127 3 -304 528 c-168 290 -316 547 -330 571 l-25 43 329 572 c182 315
330 574 330 577 0 3 -61 3 -136 2 l-135 -3 -261 -453 c-143 -249 -264 -450
-268 -445 -4 4 -123 209 -265 456 l-257 447 -139 0 -140 0 28 -47z"/>
</g>
</svg>
