<?xml version="1.0" standalone="no"?>
<!DOCTYPE svg PUBLIC "-//W3C//DTD SVG 20010904//EN"
 "http://www.w3.org/TR/2001/REC-SVG-20010904/DTD/svg10.dtd">
<svg version="1.0" xmlns="http://www.w3.org/2000/svg"
 width="260.000000pt" height="260.000000pt" viewBox="0 0 260.000000 260.000000"
 preserveAspectRatio="xMidYMid meet">
<metadata>
Created by potrace 1.14, written by Peter Selinger 2001-2017
</metadata>
<g transform="translate(0.000000,260.000000) scale(0.100000,-0.100000)"
fill="#000000" stroke="none">
<path d="M1595 2024 c-33 -7 -73 -16 -90 -19 -16 -3 -100 -20 -185 -38 l-154
-32 -39 -100 c-38 -100 -161 -463 -191 -563 -17 -59 -21 -60 72 6 34 24 62 41
62 38 0 -3 -115 -146 -255 -318 l-255 -313 38 -13 c58 -21 311 -80 372 -87 30
-4 58 -9 61 -11 20 -12 369 -19 464 -9 74 8 192 23 220 29 6 2 37 8 70 15 50
10 193 50 244 67 9 3 -2 21 -35 57 -80 86 -198 219 -212 238 -7 10 -45 28 -85
39 -116 34 -121 38 -39 41 90 2 92 2 94 12 0 5 -48 107 -108 228 l-108 219
-35 -33 -34 -32 28 50 28 51 -52 108 c-28 60 -51 112 -51 117 0 18 -21 18 -75
-1 -32 -11 -60 -18 -62 -16 -3 2 28 26 66 53 133 90 325 224 330 228 7 8 -19
4 -84 -11z"/>
</g>
</svg>
