<?xml version="1.0" encoding="UTF-8" standalone="no"?><!DOCTYPE svg PUBLIC "-//W3C//DTD SVG 1.1//EN" "http://www.w3.org/Graphics/SVG/1.1/DTD/svg11.dtd"><svg width="100%" height="100%" viewBox="0 0 1644 503" version="1.1" xmlns="http://www.w3.org/2000/svg" xmlns:xlink="http://www.w3.org/1999/xlink" xml:space="preserve" xmlns:serif="http://www.serif.com/" style="fill-rule:evenodd;clip-rule:evenodd;stroke-linejoin:round;stroke-miterlimit:2;"><g id="Icon"><path id="Cog" d="M283.167,2.063c-21.322,-2.751 -42.91,-2.751 -64.233,-0c-2.722,16.151 -6.459,32.063 -11.211,47.737c-6.676,1.438 -13.275,3.206 -19.774,5.299c-11.953,-11.198 -23.145,-23.111 -33.578,-35.737c-19.842,8.28 -38.537,19.074 -55.628,32.117c5.718,15.348 10.438,30.998 14.159,46.948c-5.062,4.582 -9.893,9.413 -14.475,14.475c-15.95,-3.721 -31.6,-8.441 -46.948,-14.159c-13.043,17.091 -23.837,35.786 -32.117,55.628c12.626,10.433 24.539,21.625 35.737,33.578c-2.093,6.499 -3.861,13.098 -5.299,19.774c-15.674,4.752 -31.586,8.489 -47.737,11.211c-2.751,21.323 -2.751,42.911 -0,64.233c16.151,2.723 32.063,6.46 47.737,11.212c1.438,6.675 3.206,13.274 5.299,19.773c-11.198,11.953 -23.111,23.146 -35.737,33.578c8.28,19.842 19.074,38.537 32.117,55.628c15.348,-5.718 30.998,-10.437 46.948,-14.159c4.582,5.062 9.413,9.893 14.475,14.475c-3.721,15.95 -8.441,31.6 -14.159,46.948c17.091,13.043 35.786,23.837 55.628,32.117c10.433,-12.626 21.625,-24.538 33.578,-35.737c6.499,2.093 13.098,3.862 19.774,5.299c4.752,15.674 8.489,31.586 11.211,47.737c21.323,2.751 42.911,2.751 64.233,0c2.723,-16.151 6.46,-32.063 11.212,-47.737c6.675,-1.437 13.274,-3.206 19.773,-5.299c11.953,11.199 23.146,23.111 33.578,35.737c19.842,-8.28 38.537,-19.074 55.628,-32.117c-5.718,-15.348 -10.437,-30.998 -14.159,-46.948c5.062,-4.582 9.893,-9.413 14.475,-14.475c15.95,3.722 31.6,8.441 46.948,14.159c13.043,-17.091 23.837,-35.786 32.117,-55.628c-12.626,-10.432 -24.538,-21.625 -35.737,-33.578c2.093,-6.499 3.862,-13.098 5.299,-19.773c15.674,-4.752 31.586,-8.489 47.737,-11.212c2.751,-21.322 2.751,-42.91 0,-64.233c-16.151,-2.722 -32.063,-6.459 -47.737,-11.211c-1.437,-6.676 -3.206,-13.275 -5.299,-19.774c11.199,-11.953 23.111,-23.145 35.737,-33.578c-8.28,-19.842 -19.074,-38.537 -32.117,-55.628c-15.348,5.718 -30.998,10.438 -46.948,14.159c-4.582,-5.062 -9.413,-9.893 -14.475,-14.475c3.722,-15.95 8.441,-31.6 14.159,-46.948c-17.091,-13.043 -35.786,-23.837 -55.628,-32.117c-10.432,12.626 -21.625,24.539 -33.578,35.737c-6.499,-2.093 -13.098,-3.861 -19.773,-5.299c-4.752,-15.674 -8.489,-31.586 -11.212,-47.737Z" style="fill:#7f2ccb;"/><g id="W" transform="matrix(6.12323e-17,1,-0.808758,4.95221e-17,211.681,-3193.16)"><text x="3321.31px" y="118.491px" style="font-family:'FiraSans-Black', 'Fira Sans', sans-serif;font-weight:900;font-size:494.586px;fill:#fefffe;">3</text></g></g><g id="LogoText" transform="matrix(1,0,0,0.996784,0,-47.3564)"><text x="563.036px" y="394.776px" style="font-family:'FiraSans-Bold', 'Fira Sans', sans-serif;font-weight:700;font-size:267.527px;fill:#25171a;">de<tspan x="869.087px 1006.33px 1230.25px " y="394.776px 394.776px 394.776px ">vWo</tspan>rk</text></g></svg>