<?xml version="1.0" encoding="UTF-8" standalone="no"?>
<!DOCTYPE svg PUBLIC "-//W3C//DTD SVG 1.1//EN" "http://www.w3.org/Graphics/SVG/1.1/DTD/svg11.dtd">
<svg width="100%" height="100%" viewBox="0 0 635 240" version="1.1" xmlns="http://www.w3.org/2000/svg" xmlns:xlink="http://www.w3.org/1999/xlink" xml:space="preserve" xmlns:serif="http://www.serif.com/" style="fill-rule:evenodd;clip-rule:evenodd;stroke-linejoin:round;stroke-miterlimit:2;">
    <g transform="matrix(1,0,0,1,-2672,0)">
        <g id="Export" transform="matrix(0.587496,0,0,0.222222,2672,0)">
            <rect x="0" y="0" width="1080" height="1080" style="fill:none;"/>
            <g transform="matrix(4.80685,0,0,12.708,-2105.4,-3499.27)">
                <g transform="matrix(63.7393,0,0,63.7393,440.455,333.755)">
                    <path d="M0.264,-0.513C0.307,-0.513 0.347,-0.503 0.383,-0.485C0.419,-0.466 0.449,-0.44 0.473,-0.408L0.473,-0.751L0.525,-0.751L0.525,-0.251C0.525,-0.215 0.518,-0.181 0.504,-0.15C0.491,-0.118 0.472,-0.09 0.449,-0.067C0.425,-0.043 0.397,-0.024 0.366,-0.011C0.334,0.003 0.3,0.01 0.264,0.01C0.228,0.01 0.194,0.003 0.163,-0.011C0.131,-0.024 0.103,-0.043 0.08,-0.067C0.056,-0.09 0.037,-0.118 0.024,-0.15C0.01,-0.181 0.003,-0.215 0.003,-0.251C0.003,-0.287 0.01,-0.321 0.024,-0.353C0.037,-0.385 0.056,-0.413 0.08,-0.437C0.103,-0.46 0.131,-0.479 0.163,-0.493C0.194,-0.506 0.228,-0.513 0.264,-0.513ZM0.264,-0.46C0.235,-0.46 0.208,-0.455 0.183,-0.444C0.158,-0.433 0.136,-0.418 0.117,-0.399C0.098,-0.38 0.083,-0.358 0.071,-0.333C0.061,-0.307 0.055,-0.28 0.055,-0.251C0.055,-0.222 0.061,-0.195 0.071,-0.17C0.083,-0.145 0.098,-0.123 0.117,-0.103C0.136,-0.085 0.158,-0.07 0.183,-0.059C0.208,-0.048 0.235,-0.042 0.264,-0.042C0.293,-0.042 0.32,-0.048 0.345,-0.059C0.37,-0.07 0.393,-0.085 0.411,-0.103C0.431,-0.123 0.446,-0.145 0.457,-0.17C0.468,-0.195 0.473,-0.222 0.473,-0.251C0.473,-0.28 0.468,-0.307 0.457,-0.333C0.446,-0.358 0.431,-0.38 0.411,-0.399C0.393,-0.418 0.37,-0.433 0.345,-0.444C0.32,-0.455 0.293,-0.46 0.264,-0.46Z" style="fill:rgb(34,35,37);fill-rule:nonzero;"/>
                </g>
                <g transform="matrix(63.7393,0,0,63.7393,479.208,333.755)">
                    <path d="M0.26,-0.512C0.296,-0.512 0.33,-0.505 0.362,-0.492C0.393,-0.478 0.421,-0.459 0.445,-0.436C0.468,-0.412 0.487,-0.384 0.5,-0.352C0.514,-0.32 0.521,-0.286 0.521,-0.25C0.521,-0.214 0.514,-0.18 0.5,-0.149C0.487,-0.117 0.468,-0.089 0.445,-0.066C0.421,-0.042 0.393,-0.023 0.362,-0.01C0.33,0.004 0.296,0.011 0.26,0.011C0.224,0.011 0.19,0.004 0.159,-0.01C0.127,-0.023 0.099,-0.042 0.076,-0.066C0.052,-0.089 0.033,-0.117 0.02,-0.149C0.006,-0.18 -0.001,-0.214 -0.001,-0.25C-0.001,-0.286 0.006,-0.32 0.02,-0.352C0.033,-0.384 0.052,-0.412 0.076,-0.436C0.099,-0.459 0.127,-0.478 0.159,-0.492C0.19,-0.505 0.224,-0.512 0.26,-0.512ZM0.26,-0.459C0.231,-0.459 0.203,-0.454 0.178,-0.443C0.153,-0.432 0.131,-0.417 0.112,-0.398C0.093,-0.379 0.079,-0.357 0.068,-0.332C0.057,-0.306 0.051,-0.279 0.051,-0.25C0.051,-0.221 0.057,-0.194 0.068,-0.169C0.079,-0.144 0.093,-0.122 0.112,-0.102C0.131,-0.084 0.153,-0.069 0.178,-0.058C0.203,-0.047 0.231,-0.041 0.26,-0.041C0.289,-0.041 0.316,-0.047 0.341,-0.058C0.366,-0.069 0.389,-0.084 0.407,-0.102C0.427,-0.122 0.442,-0.144 0.453,-0.169C0.464,-0.194 0.469,-0.221 0.469,-0.25C0.469,-0.279 0.464,-0.306 0.453,-0.332C0.442,-0.357 0.427,-0.379 0.407,-0.398C0.389,-0.417 0.366,-0.432 0.341,-0.443C0.316,-0.454 0.289,-0.459 0.26,-0.459Z" style="fill:rgb(34,35,37);fill-rule:nonzero;"/>
                </g>
                <g transform="matrix(63.7393,0,0,63.7393,517.515,333.755)">
                    <path d="M-0.001,-0.75L0.051,-0.75L0.051,-0.12C0.051,-0.098 0.059,-0.079 0.074,-0.064C0.089,-0.049 0.108,-0.041 0.13,-0.041L0.13,0.011C0.112,0.011 0.095,0.008 0.079,0.001C0.063,-0.006 0.049,-0.015 0.038,-0.027C0.026,-0.039 0.017,-0.053 0.01,-0.069C0.003,-0.085 -0.001,-0.102 -0.001,-0.12L-0.001,-0.75Z" style="fill:rgb(34,35,37);fill-rule:nonzero;"/>
                </g>
                <g transform="matrix(63.7393,0,0,63.7393,527.905,333.755)">
                    <path d="M0.26,-0.512C0.296,-0.512 0.33,-0.505 0.362,-0.492C0.393,-0.478 0.421,-0.459 0.445,-0.436C0.468,-0.412 0.487,-0.384 0.5,-0.352C0.514,-0.32 0.521,-0.286 0.521,-0.25C0.521,-0.214 0.514,-0.18 0.5,-0.149C0.487,-0.117 0.468,-0.089 0.445,-0.066C0.421,-0.042 0.393,-0.023 0.362,-0.01C0.33,0.004 0.296,0.011 0.26,0.011C0.224,0.011 0.19,0.004 0.159,-0.01C0.127,-0.023 0.099,-0.042 0.076,-0.066C0.052,-0.089 0.033,-0.117 0.02,-0.149C0.006,-0.18 -0.001,-0.214 -0.001,-0.25C-0.001,-0.286 0.006,-0.32 0.02,-0.352C0.033,-0.384 0.052,-0.412 0.076,-0.436C0.099,-0.459 0.127,-0.478 0.159,-0.492C0.19,-0.505 0.224,-0.512 0.26,-0.512ZM0.26,-0.459C0.231,-0.459 0.203,-0.454 0.178,-0.443C0.153,-0.432 0.131,-0.417 0.112,-0.398C0.093,-0.379 0.079,-0.357 0.068,-0.332C0.057,-0.306 0.051,-0.279 0.051,-0.25C0.051,-0.221 0.057,-0.194 0.068,-0.169C0.079,-0.144 0.093,-0.122 0.112,-0.102C0.131,-0.084 0.153,-0.069 0.178,-0.058C0.203,-0.047 0.231,-0.041 0.26,-0.041C0.289,-0.041 0.316,-0.047 0.341,-0.058C0.366,-0.069 0.389,-0.084 0.407,-0.102C0.427,-0.122 0.442,-0.144 0.453,-0.169C0.464,-0.194 0.469,-0.221 0.469,-0.25C0.469,-0.279 0.464,-0.306 0.453,-0.332C0.442,-0.357 0.427,-0.379 0.407,-0.398C0.389,-0.417 0.366,-0.432 0.341,-0.443C0.316,-0.454 0.289,-0.459 0.26,-0.459Z" style="fill:rgb(34,35,37);fill-rule:nonzero;"/>
                </g>
                <g transform="matrix(63.7393,0,0,63.7393,566.212,333.755)">
                    <path d="M0.262,-0.51C0.298,-0.51 0.332,-0.503 0.364,-0.49C0.395,-0.476 0.423,-0.457 0.447,-0.434C0.47,-0.41 0.489,-0.382 0.502,-0.35C0.516,-0.318 0.523,-0.284 0.523,-0.248C0.523,-0.212 0.516,-0.178 0.502,-0.147C0.489,-0.115 0.47,-0.087 0.447,-0.064C0.423,-0.04 0.395,-0.021 0.364,-0.008C0.332,0.006 0.298,0.013 0.262,0.013C0.219,0.013 0.179,0.004 0.142,-0.015C0.106,-0.034 0.076,-0.059 0.053,-0.091L0.053,0.252L0,0.252L0,-0.248C0,-0.284 0.007,-0.318 0.021,-0.35C0.034,-0.382 0.053,-0.41 0.077,-0.434C0.1,-0.457 0.128,-0.476 0.16,-0.49C0.192,-0.503 0.226,-0.51 0.262,-0.51ZM0.262,-0.457C0.233,-0.457 0.205,-0.452 0.18,-0.441C0.155,-0.43 0.133,-0.415 0.114,-0.396C0.095,-0.377 0.081,-0.355 0.07,-0.33C0.059,-0.304 0.053,-0.277 0.053,-0.248C0.053,-0.219 0.059,-0.192 0.07,-0.167C0.081,-0.142 0.095,-0.119 0.114,-0.101C0.133,-0.082 0.155,-0.067 0.18,-0.056C0.205,-0.045 0.233,-0.039 0.262,-0.039C0.291,-0.039 0.318,-0.045 0.343,-0.056C0.368,-0.067 0.391,-0.082 0.409,-0.101C0.429,-0.119 0.444,-0.142 0.455,-0.167C0.466,-0.192 0.471,-0.219 0.471,-0.248C0.471,-0.277 0.466,-0.304 0.455,-0.33C0.444,-0.355 0.429,-0.377 0.409,-0.396C0.391,-0.415 0.368,-0.43 0.343,-0.441C0.318,-0.452 0.291,-0.457 0.262,-0.457Z" style="fill:rgb(34,35,37);fill-rule:nonzero;"/>
                </g>
                <g transform="matrix(63.7393,0,0,63.7393,604.456,333.755)">
                    <path d="M0.473,-0.274C0.47,-0.3 0.462,-0.324 0.45,-0.346C0.438,-0.368 0.423,-0.387 0.405,-0.404C0.386,-0.421 0.365,-0.434 0.342,-0.443C0.318,-0.452 0.293,-0.457 0.266,-0.457C0.239,-0.457 0.214,-0.452 0.19,-0.443C0.166,-0.434 0.145,-0.421 0.127,-0.404C0.108,-0.387 0.093,-0.368 0.081,-0.346C0.069,-0.324 0.061,-0.3 0.058,-0.274L0.473,-0.274ZM0.266,0.013C0.23,0.013 0.196,0.006 0.164,-0.008C0.132,-0.021 0.104,-0.04 0.081,-0.064C0.057,-0.087 0.038,-0.115 0.025,-0.147C0.011,-0.178 0.004,-0.212 0.004,-0.248C0.004,-0.284 0.011,-0.318 0.025,-0.35C0.038,-0.382 0.057,-0.41 0.081,-0.434C0.104,-0.457 0.132,-0.476 0.164,-0.49C0.196,-0.503 0.23,-0.51 0.266,-0.51C0.302,-0.51 0.336,-0.503 0.368,-0.49C0.399,-0.476 0.427,-0.457 0.451,-0.434C0.474,-0.41 0.493,-0.382 0.506,-0.35C0.52,-0.318 0.527,-0.284 0.527,-0.248L0.527,-0.235C0.527,-0.231 0.527,-0.227 0.526,-0.222L0.058,-0.222C0.061,-0.196 0.069,-0.172 0.081,-0.15C0.093,-0.128 0.108,-0.109 0.127,-0.092C0.145,-0.075 0.166,-0.062 0.19,-0.053C0.214,-0.044 0.239,-0.039 0.266,-0.039C0.285,-0.039 0.304,-0.043 0.321,-0.05C0.338,-0.057 0.354,-0.068 0.367,-0.081L0.404,-0.044C0.387,-0.027 0.366,-0.013 0.343,-0.003C0.319,0.008 0.293,0.013 0.266,0.013Z" style="fill:rgb(34,35,37);fill-rule:nonzero;"/>
                </g>
                <g transform="matrix(63.7393,0,0,63.7393,643.464,333.755)">
                    <path d="M0.051,-0L-0.001,-0L-0.001,-0.25C-0.001,-0.286 0.006,-0.32 0.02,-0.352C0.033,-0.384 0.052,-0.412 0.076,-0.436C0.099,-0.459 0.127,-0.478 0.159,-0.492C0.19,-0.505 0.224,-0.512 0.26,-0.512L0.26,-0.459C0.231,-0.459 0.204,-0.454 0.179,-0.443C0.154,-0.432 0.132,-0.417 0.113,-0.398C0.094,-0.379 0.079,-0.357 0.068,-0.332C0.057,-0.306 0.051,-0.279 0.051,-0.25L0.051,-0Z" style="fill:rgb(34,35,37);fill-rule:nonzero;"/>
                </g>
            </g>
        </g>
    </g>
</svg>
