<?xml version="1.0" encoding="UTF-8" standalone="no"?>
<!DOCTYPE svg PUBLIC "-//W3C//DTD SVG 1.1//EN" "http://www.w3.org/Graphics/SVG/1.1/DTD/svg11.dtd">
<svg width="100%" height="100%" viewBox="0 0 1080 1080" version="1.1" xmlns="http://www.w3.org/2000/svg" xmlns:xlink="http://www.w3.org/1999/xlink" xml:space="preserve" xmlns:serif="http://www.serif.com/" style="fill-rule:evenodd;clip-rule:evenodd;stroke-linejoin:round;stroke-miterlimit:2;">
    <g transform="matrix(1,0,0,1,0,-1606)">
        <g transform="matrix(1,0,0,1,0,1606)">
            <rect id="full-color" x="0" y="0" width="1080" height="1080" style="fill:none;"/>
            <g id="full-color1" serif:id="full-color">
                <g id="Logo" transform="matrix(1.13965,0,0,1.13965,-47.4413,-75.4088)">
                    <g transform="matrix(2.07721,0,0,2.09877,-312.79,140.703)">
                        <g id="Icon">
                            <path id="Icon1" serif:id="Icon" d="M208.64,220.926L235.361,188.536L226.749,194.455L233.027,174.954L239.166,158.623L265.727,153.237L243.451,168.382L251.281,165.756L257.146,178.178L253.895,183.407L257.774,179.88L269.096,202.447L259.772,202.909L269.096,205.597L283.204,221.185C257.994,229.605 233.158,229.066 208.64,220.926Z" style="fill:url(#_Linear1);"/>
                        </g>
                    </g>
                    <g transform="matrix(1.69141,0,0,1.69141,-1479.48,-245.509)">
                        <g id="Text">
                            <g id="Text1" serif:id="Text" transform="matrix(100,0,0,100,1052.4,499.41)">
                                <path d="M0.041,-0.7L0.198,-0.7L0.268,-0.199L0.27,-0.199L0.34,-0.7L0.497,-0.7L0.497,-0L0.393,-0L0.393,-0.53L0.391,-0.53L0.311,-0L0.219,-0L0.139,-0.53L0.137,-0.53L0.137,-0L0.041,-0L0.041,-0.7Z" style="fill:rgb(45,45,45);fill-rule:nonzero;"/>
                            </g>
                            <g transform="matrix(100,0,0,100,1106.2,499.41)">
                                <path d="M0.126,-0.7L0.275,-0.7L0.389,-0L0.279,-0L0.259,-0.139L0.259,-0.137L0.134,-0.137L0.114,-0L0.012,-0L0.126,-0.7ZM0.246,-0.232L0.197,-0.578L0.195,-0.578L0.147,-0.232L0.246,-0.232Z" style="fill:rgb(45,45,45);fill-rule:nonzero;"/>
                            </g>
                            <g transform="matrix(100,0,0,100,1146.3,499.41)">
                                <path d="M0.041,-0.7L0.204,-0.7C0.261,-0.7 0.302,-0.687 0.328,-0.661C0.354,-0.634 0.367,-0.594 0.367,-0.539L0.367,-0.496C0.367,-0.423 0.343,-0.377 0.295,-0.358L0.295,-0.356C0.322,-0.348 0.341,-0.332 0.352,-0.307C0.363,-0.282 0.368,-0.249 0.368,-0.208L0.368,-0.085C0.368,-0.065 0.369,-0.049 0.37,-0.037C0.371,-0.024 0.375,-0.012 0.38,-0L0.268,-0C0.264,-0.011 0.261,-0.022 0.26,-0.032C0.259,-0.042 0.258,-0.06 0.258,-0.086L0.258,-0.214C0.258,-0.246 0.253,-0.268 0.243,-0.281C0.232,-0.294 0.214,-0.3 0.189,-0.3L0.151,-0.3L0.151,-0L0.041,-0L0.041,-0.7ZM0.191,-0.4C0.213,-0.4 0.23,-0.406 0.241,-0.417C0.252,-0.428 0.257,-0.447 0.257,-0.474L0.257,-0.528C0.257,-0.553 0.253,-0.572 0.244,-0.583C0.234,-0.594 0.22,-0.6 0.201,-0.6L0.151,-0.6L0.151,-0.4L0.191,-0.4Z" style="fill:rgb(45,45,45);fill-rule:nonzero;"/>
                            </g>
                            <g transform="matrix(100,0,0,100,1186.6,499.41)">
                                <path d="M0.041,-0.7L0.341,-0.7L0.341,-0.6L0.151,-0.6L0.151,-0.415L0.302,-0.415L0.302,-0.315L0.151,-0.315L0.151,-0.1L0.341,-0.1L0.341,-0L0.041,-0L0.041,-0.7Z" style="fill:rgb(45,45,45);fill-rule:nonzero;"/>
                            </g>
                            <g transform="matrix(100,0,0,100,1223.1,499.41)">
                                <path d="M0.184,0.01C0.131,0.01 0.09,-0.005 0.063,-0.035C0.036,-0.066 0.022,-0.109 0.022,-0.166L0.022,-0.206L0.126,-0.206L0.126,-0.158C0.126,-0.113 0.145,-0.09 0.183,-0.09C0.202,-0.09 0.216,-0.096 0.226,-0.107C0.235,-0.117 0.24,-0.135 0.24,-0.16C0.24,-0.189 0.233,-0.215 0.22,-0.237C0.207,-0.26 0.182,-0.287 0.146,-0.318C0.101,-0.358 0.069,-0.394 0.051,-0.427C0.033,-0.459 0.024,-0.495 0.024,-0.536C0.024,-0.591 0.038,-0.634 0.066,-0.665C0.094,-0.695 0.135,-0.71 0.188,-0.71C0.241,-0.71 0.281,-0.695 0.308,-0.665C0.335,-0.634 0.348,-0.591 0.348,-0.534L0.348,-0.505L0.244,-0.505L0.244,-0.541C0.244,-0.565 0.239,-0.583 0.23,-0.594C0.221,-0.605 0.207,-0.61 0.189,-0.61C0.152,-0.61 0.134,-0.588 0.134,-0.543C0.134,-0.518 0.141,-0.494 0.155,-0.472C0.168,-0.45 0.193,-0.423 0.229,-0.392C0.275,-0.352 0.307,-0.316 0.324,-0.283C0.341,-0.25 0.35,-0.212 0.35,-0.168C0.35,-0.111 0.336,-0.067 0.308,-0.036C0.279,-0.005 0.238,0.01 0.184,0.01Z" style="fill:rgb(45,45,45);fill-rule:nonzero;"/>
                            </g>
                            <g transform="matrix(100,0,0,100,1260.3,499.41)">
                                <path d="M0.041,-0.7L0.203,-0.7C0.258,-0.7 0.299,-0.685 0.326,-0.656C0.353,-0.627 0.367,-0.584 0.367,-0.527L0.367,-0.458C0.367,-0.401 0.353,-0.358 0.326,-0.329C0.299,-0.3 0.258,-0.285 0.203,-0.285L0.151,-0.285L0.151,-0L0.041,-0L0.041,-0.7ZM0.203,-0.385C0.221,-0.385 0.234,-0.39 0.244,-0.4C0.253,-0.41 0.257,-0.427 0.257,-0.451L0.257,-0.534C0.257,-0.558 0.253,-0.575 0.244,-0.585C0.234,-0.595 0.221,-0.6 0.203,-0.6L0.151,-0.6L0.151,-0.385L0.203,-0.385Z" style="fill:rgb(45,45,45);fill-rule:nonzero;"/>
                            </g>
                            <g transform="matrix(100,0,0,100,1298.9,499.41)">
                                <path d="M0.2,0.01C0.146,0.01 0.105,-0.005 0.076,-0.036C0.047,-0.067 0.033,-0.11 0.033,-0.166L0.033,-0.534C0.033,-0.59 0.047,-0.633 0.076,-0.664C0.105,-0.695 0.146,-0.71 0.2,-0.71C0.254,-0.71 0.295,-0.695 0.324,-0.664C0.353,-0.633 0.367,-0.59 0.367,-0.534L0.367,-0.166C0.367,-0.11 0.353,-0.067 0.324,-0.036C0.295,-0.005 0.254,0.01 0.2,0.01ZM0.2,-0.09C0.238,-0.09 0.257,-0.113 0.257,-0.159L0.257,-0.541C0.257,-0.587 0.238,-0.61 0.2,-0.61C0.162,-0.61 0.143,-0.587 0.143,-0.541L0.143,-0.159C0.143,-0.113 0.162,-0.09 0.2,-0.09Z" style="fill:rgb(45,45,45);fill-rule:nonzero;"/>
                            </g>
                            <g transform="matrix(100,0,0,100,1338.9,499.41)">
                                <path d="M0.041,-0.7L0.203,-0.7C0.258,-0.7 0.299,-0.685 0.326,-0.656C0.353,-0.627 0.367,-0.584 0.367,-0.527L0.367,-0.458C0.367,-0.401 0.353,-0.358 0.326,-0.329C0.299,-0.3 0.258,-0.285 0.203,-0.285L0.151,-0.285L0.151,-0L0.041,-0L0.041,-0.7ZM0.203,-0.385C0.221,-0.385 0.234,-0.39 0.244,-0.4C0.253,-0.41 0.257,-0.427 0.257,-0.451L0.257,-0.534C0.257,-0.558 0.253,-0.575 0.244,-0.585C0.234,-0.595 0.221,-0.6 0.203,-0.6L0.151,-0.6L0.151,-0.385L0.203,-0.385Z" style="fill:rgb(45,45,45);fill-rule:nonzero;"/>
                            </g>
                            <g transform="matrix(100,0,0,100,1374,499.41)">
                                <path d="M0.126,-0.7L0.275,-0.7L0.389,-0L0.279,-0L0.259,-0.139L0.259,-0.137L0.134,-0.137L0.114,-0L0.012,-0L0.126,-0.7ZM0.246,-0.232L0.197,-0.578L0.195,-0.578L0.147,-0.232L0.246,-0.232Z" style="fill:rgb(45,45,45);fill-rule:nonzero;"/>
                            </g>
                        </g>
                    </g>
                </g>
            </g>
        </g>
    </g>
    <defs>
        <linearGradient id="_Linear1" x1="0" y1="0" x2="1" y2="0" gradientUnits="userSpaceOnUse" gradientTransform="matrix(364.354,0,0,348.347,357.823,365.827)"><stop offset="0" style="stop-color:rgb(0,68,222);stop-opacity:1"/><stop offset="1" style="stop-color:rgb(0,70,229);stop-opacity:1"/></linearGradient>
    </defs>
</svg>
